<svg fill="none" xmlns="http://www.w3.org/2000/svg" viewBox="0 0 32 21"><path d="M32 3a3 3 0 0 0-3-3H3a3 3 0 0 0-3 3v10.38a3 3 0 0 0 3 3h6.75c.26 0 1.32.1 2.25 1.03 1.65 1.67 1.91 3.59 4 3.59s2.24-1.93 4-3.59a3.34 3.34 0 0 1 2.2-1.03H29a3 3 0 0 0 3-3V3Z" fill="#fff"/><circle cx="16" cy="18" r="1" fill="#000"/><path d="m20.0236 2.5704c-1.1232-.812-2.496-1.2896-3.9784-1.2896-.0216 0-.044 0-.0656.0008-.0216 0-.044-.0008-.0656-.0008-1.4824 0-2.7616.508-3.8848 1.32-1.7552 1.2696-2.7544 3.2408-2.2872 5.492.3888 1.876 1.8008 3.4176 3.068 4.7584.476.504.9512.9112 1.348 1.2984.6952.6776 1.184 1.1704 1.8224 1.1704s1.1272-.4928 1.8224-1.1704c.3968-.3864.872-.7936 1.348-1.2984 1.2664-1.3408 2.7616-2.8672 3.2072-4.7312.5328-2.2288-.5784-4.2808-2.3344-5.5504zm-5.2944 10.476c0-.0424.0344-.076.076-.076 0 0 0 0 0 0 .0424 0 .076.0344.076.076 0 .0032 0 .3032.0264.4752.0008.0072.0008.0144 0 .0216-.0104-.0104-.0208-.02-.0312-.0304l-.0512-.0496c-.0288-.028-.0568-.0552-.0856-.0824-.0112-.16-.0112-.3256-.0112-.3344zm.2488-.7648.5056-.7248c.024-.0344.072-.0432.1056-.0184.0344.024.0432.072.0192.1064l-.5056.724c-.0144.0208-.0384.0328-.0624.0328-.0152 0-.0304-.004-.044-.0136-.0344-.024-.0424-.0712-.0184-.1064zm6.448-4.384c-.1616.6736-.512 1.3704-1.0712 2.1288-.524.7104-1.152 1.3752-1.76 2.0168-.0472.0504-.0944.1-.1416.1496-.2864.3032-.5768.5728-.8576.8328-.1616.1504-.3144.292-.4632.4368l-.0512.0496c-.3312.3232-.6312.6152-.86.7576-.1256.0776-.2912.0216-.3448-.116-.152-.392-.1584-.8552.0648-1.5808.328-1.0672 1.5952-2.0904 2.2568-2.596.6616-.5056 2.0064-1.384 2.3512-1.8736.3448-.4888.2504-1.0008-.3-1.34s-1.24-.4856-1.8512-.5928c-.6112-.1072-1.8736-.308-2.8568-.3744-.1792-.012-.3544-.0288-.5216-.0472-.0216-.0488-.0096-.1.0568-.1376.1096-.0632.304-.1096.6912-.1704.3872-.0608 1.2952-.224 1.2952-.224s-.3688.3968-.6056.5c.2464-.0368.5928-.1648.5928-.1648s.6632-.4592.8768-.6304c.2128-.1704.4728-.3464.6056-.532l.1744.4616c0 0-.4112.484-.4592.7432.3112-.156 1.0896-.2904 1.36-.3536.424.328.9176.4816.9176.4816s-.9304-1.0192-1.032-1.1264c-.1016-.1072-.1944-.0856-.2776-.0016-.0832.0832-.0744.224-.0744.224s-.3648-.4872-.508-.6616c-.1424-.1744-.2312-.1464-.3648 0s-1.1136 1.0064-1.1136 1.0064-1.3032.1192-1.7872.172c-.4296.0472-.732.1-.7416.3632-.5592-.0816-.9792-.184-1.0984-.2376-.1776-.0808.0104-.216.696-.3088.6856-.0928 2.316-.172 2.316-.172l-.5536-.2928.356.2608c0 0-1.1376-.024-1.8488-.0016-.712.0224-1.0728.1192-1.2896.2248-.2168.1056-.2168.2032-.1168.336-.6168-.2056-.5336-.3696-.3336-.4584.2-.0888 1.3728-.3336 1.3728-.3336l.4112-.1136.6472.2584c0 0-1.26-1.3024-1.3512-1.4136-.0904-.1112-.196-.108-.2928-.0192s-.6464.5736-.9992.9296c-.3528.356-.6256.5368-.6256.5368l.3776-.1496.5336-.3144.1608-.22.1888.0304.5752-.5672.1944.4424c0 0-.1976.2224-.3504.3888-.1528.1664-.236.2448-.6472.3448-.4112.1-.8256.2808-.8368.456-.0032.2504.5144.3944 1.084.5256s2.496.3888 3.68.5504 2.0928.436 2.4712.728c.3776.292.0528.66-.4144 1.008-.4672.348-1.5048.8712-2.668 1.6496-1.0904.7296-1.8784 1.644-2.5064 2.6864-.0848-.084-.1688-.1696-.2528-.2584-.6448-.6824-1.2656-1.3544-1.7784-2.076-.5576-.7848-.9008-1.5104-1.0472-2.2192-.184-.888-.1-1.74.2488-2.5336.1664-.3768.392-.7376.672-1.072.28-.3344.6128-.6424.9904-.9152 1.0592-.7664 2.1464-1.1384 3.3232-1.1384.0184 0 .0376 0 .0568 0 .0032 0 .0064 0 .0088 0s.0064 0 .0088 0c.0184 0 .0376 0 .0568 0 1.2328 0 2.4152.3832 3.4176 1.108.7704.5576 1.3632 1.2608 1.7136 2.0344.1784.3944.2912.8024.336 1.2128.0472.4312.0176.8696-.0864 1.3032zm-5.2296 2.7456.4928-.4224c.0272-.0232.0688-.02.092.0072.0232.0272.02.0688-.0072.092l-.4928.4224c-.0128.0104-.0272.016-.0424.016-.0184 0-.0368-.008-.0496-.0232-.024-.0272-.0208-.068.0072-.092zm1.1656-.9472.448-.2856c.0288-.0184.0672-.0096.0856.0192s.0096.0664-.0192.0856l-.448.2856c-.0104.0064-.0216.0096-.0328.0096-.02 0-.04-.0104-.052-.0288-.0184-.0288-.0096-.0672.0192-.0856zm1.2664-.8112.348-.2592c.0224-.0168.0544-.012.0712.0104.0168.0224.012.0544-.0104.0712l-.348.2592c-.0088.0064-.02.0104-.0304.0104-.0152 0-.0312-.0072-.0408-.0208-.0168-.0224-.012-.0544.0104-.0712zm1.396-1.5944c-.0304-.1224-.092-.2136-.1744-.2576-.0176-.0096-.024-.0312-.0144-.0496.0096-.0176.0312-.024.0496-.0144.1.0536.1752.1616.2104.304.0312.1272.0264.268-.0128.3768-.0048.0144-.0192.024-.0344.024-.004 0-.008-.0008-.0128-.0024-.0184-.0064-.0288-.028-.0216-.0464.0344-.096.0384-.2208.0104-.3344zm-.188.6952c.0192-.0168.0496-.0152.0664.0048.0168.0192.0152.0496-.0048.0664l-.2296.2c-.0088.008-.02.012-.0312.012-.0128 0-.0264-.0056-.036-.016-.0168-.0192-.0152-.0496.0048-.0664l.2296-.2zm-.4432-1.3512c-.0032.0096-.0112.016-.0208.016-.0016 0-.004 0-.0064-.0008l-.164-.0472c-.0112-.0032-.0184-.0152-.0144-.0272.0032-.0112.0152-.0184.0272-.0144l.164.0472c.012.0024.0184.0152.0144.0264zm-.7216-.1952c-.0008.0048-.0056.0088-.0104.0088-.0008 0-.0016 0-.0024 0l-.2536-.0536c-.0056-.0016-.0096-.0072-.008-.0128.0016-.0056.0072-.0096.0128-.008l.2544.0536c.0064.0008.0096.0064.0088.0128zm-.6984-.1472c-.0008.0048-.0056.0088-.0104.0088-.0008 0-.0008 0-.0016 0l-.1984-.0336c-.0064-.0008-.0104-.0064-.0088-.0128.0008-.0056.0064-.0104.0128-.0088l.1984.0336c.0056.0008.0096.0064.0088.0128zm-2.2096-1.9376c-.1584-.0792-.4016-.3-.4784-.3656-.076-.0656-.1848-.0696-.2944.0416-.1096.1112-.3072.2792-.3072.2792l.0968.0984c0 0 .1464-.0376.2448.0128s.4792.304.7976.4264c-.2264-.1832-.8104-.624-.8104-.624s.0888-.1352.2032-.0848c.1136.0504.256.2776.5488.3792.2936.1016.532.1568.6824.2304.1496.0736.2992.136.2992.136h.2472c0 0-.46-.2472-.6336-.3096-.1744-.0632-.4368-.1424-.5952-.2216z" fill="#000"/></svg>
