<svg width="128" height="128" viewBox="0 0 128 128" fill="#fff" xmlns="http://www.w3.org/2000/svg">
<rect width="128" height="128" rx="28" fill="#151515"/>
<path d="m84.512 34.427c-5.797-4.192-12.882-6.657-20.534-6.657-.113 0-.227.001-.339.003-.113-.001-.226-.003-.339-.003-7.652 0-14.254 2.622-20.05 6.814-9.06 6.552-14.217 16.727-11.806 28.346 2.008 9.682 9.294 17.639 15.833 24.56 2.457 2.6 4.91 4.703 6.957 6.7 3.588 3.497 6.111 6.04 9.406 6.04s5.819-2.542 9.406-6.04c2.048-1.996 4.501-4.098 6.958-6.7 6.538-6.921 14.253-14.8 16.555-24.417 2.752-11.503-2.987-22.094-12.047-28.646zm-27.328 54.068c0-.217.176-.393.394-.393 0 0 0 0 .001 0 .217 0 .393.177.393.394 0 .015-.001 1.567.136 2.454.006.039.006.076.001.113-.054-.052-.107-.105-.162-.157l-.263-.256c-.147-.143-.294-.285-.443-.427-.058-.826-.057-1.681-.057-1.728zm1.283-3.946 2.611-3.739c.125-.178.37-.222.547-.097.178.125.222.37.097.547l-2.611 3.739c-.076.109-.199.168-.323.168-.077 0-.156-.023-.225-.07-.176-.124-.22-.369-.096-.548zm33.281-22.626c-.833 3.477-2.641 7.072-5.528 10.989-2.704 3.668-5.947 7.096-9.084 10.411-.245.259-.488.516-.73.772-1.478 1.565-2.976 2.955-4.425 4.3-.835.775-1.624 1.507-2.39 2.254l-.263.256c-1.711 1.669-3.256 3.176-4.439 3.909-.648.402-1.504.112-1.78-.599-.785-2.023-.816-4.415.335-8.16 1.693-5.509 8.235-10.788 11.649-13.399 3.414-2.611 10.357-7.144 12.136-9.669 1.779-2.525 1.291-5.164-1.549-6.915s-6.398-2.506-9.555-3.06c-3.156-.554-9.669-1.588-14.747-1.932-.926-.063-1.829-.147-2.692-.244-.111-.25-.051-.515.292-.712.565-.325 1.568-.565 3.567-.88 1.999-.315 6.685-1.157 6.685-1.157s-1.904 2.046-3.127 2.582c1.272-.191 3.06-.851 3.06-.851s3.424-2.372 4.524-3.252c1.1-.88 2.439-1.788 3.127-2.745l.899 2.381c0 0-2.124 2.496-2.372 3.835 1.606-.804 5.624-1.501 7.019-1.826 2.19 1.693 4.734 2.486 4.734 2.486s-4.8-5.26-5.327-5.815c-.526-.554-1.005-.44-1.434-.009-.431.431-.382 1.157-.382 1.157s-1.884-2.515-2.62-3.414c-.736-.899-1.195-.755-1.884 0s-5.748 5.193-5.748 5.193-6.728.617-9.225.889c-2.217.242-3.778.518-3.828 1.873-2.887-.422-5.056-.95-5.669-1.228-.918-.416.052-1.114 3.591-1.592 3.539-.479 11.955-.889 11.955-.889l-2.859-1.511 1.836 1.348c0 0-5.872-.125-9.544-.009-3.673.115-5.538.617-6.656 1.162-1.119.545-1.119 1.048-.602 1.736-3.185-1.061-2.754-1.908-1.721-2.367 1.033-.459 7.087-1.721 7.087-1.721l2.124-.588 3.342 1.334c0 0-6.505-6.721-6.972-7.294-.467-.574-1.011-.559-1.513-.101s-3.335 2.962-5.157 4.799c-1.822 1.836-3.228 2.769-3.228 2.769l1.951-.774 2.754-1.621.832-1.134.975.158 2.97-2.926 1.005 2.281c0 0-1.018 1.148-1.807 2.008-.789.861-1.219 1.262-3.342 1.779-2.124.516-4.261 1.449-4.318 2.353-.015 1.291 2.654 2.037 5.595 2.711s12.882 2.008 18.993 2.84 10.802 2.252 12.753 3.759c1.951 1.506.272 3.405-2.137 5.203-2.41 1.798-7.765 4.495-13.771 8.512-5.627 3.764-9.694 8.485-12.937 13.863-.436-.432-.871-.877-1.305-1.335-3.328-3.523-6.533-6.992-9.18-10.715-2.879-4.049-4.648-7.795-5.406-11.454-.95-4.582-.517-8.981 1.286-13.077.858-1.946 2.024-3.809 3.467-5.534 1.444-1.727 3.163-3.316 5.11-4.725 5.466-3.955 11.077-5.877 17.151-5.877.097 0 .195.001.292.002.015 0 .032 0 .047 0s.032 0 .047 0c.097-.001.194-.002.292-.002 6.365 0 12.464 1.977 17.637 5.719 3.978 2.876 7.037 6.508 8.846 10.501.922 2.034 1.505 4.14 1.733 6.261.242 2.225.092 4.489-.445 6.728zm-26.99 14.17 2.544-2.18c.142-.121.354-.105.475.036.121.142.105.354-.036.475l-2.544 2.18c-.064.054-.142.081-.219.081-.095 0-.189-.04-.256-.118-.122-.139-.106-.353.036-.474zm6.016-4.89 2.314-1.473c.148-.095.345-.051.44.098s.051.345-.098.44l-2.314 1.473c-.053.034-.113.05-.171.05-.105 0-.208-.052-.269-.148-.094-.149-.05-.346.098-.44zm6.537-4.187 1.798-1.339c.116-.087.28-.063.367.054.087.116.063.28-.054.367l-1.798 1.339c-.047.035-.102.052-.156.052-.08 0-.159-.036-.211-.106-.086-.117-.062-.282.054-.367zm7.204-8.229c-.156-.63-.476-1.103-.9-1.329-.091-.049-.125-.162-.076-.254.049-.091.162-.125.254-.076.518.278.904.834 1.087 1.569.163.657.138 1.384-.067 1.946-.027.076-.1.123-.176.123-.021 0-.043-.003-.064-.011-.097-.035-.147-.143-.112-.24.179-.495.199-1.141.054-1.728zm-.972 3.587c.101-.089.255-.077.344.024.089.101.077.255-.024.344l-1.186 1.033c-.046.04-.103.06-.16.06-.068 0-.136-.028-.184-.083-.089-.101-.077-.255.024-.344l1.186-1.034zm-2.286-6.972c-.015.049-.059.082-.108.082-.01 0-.021-.002-.031-.004l-.846-.244c-.059-.017-.094-.08-.076-.139.017-.059.079-.094.139-.076l.846.244c.06.014.094.077.076.137zm-3.725-1.009c-.005.027-.029.045-.055.045-.004 0-.008 0-.012-.001l-1.311-.278c-.03-.007-.05-.036-.043-.066.007-.03.036-.05.066-.043l1.311.278c.032.004.051.035.044.065zm-3.604-.758c-.004.027-.028.046-.055.046-.003 0-.006 0-.009-.001l-1.024-.172c-.031-.005-.052-.034-.046-.064.005-.031.034-.052.064-.046l1.024.172c.03.005.05.034.046.065zm-11.406-9.999c-.817-.409-2.073-1.549-2.467-1.886-.394-.337-.954-.358-1.52.216-.567.574-1.586 1.442-1.586 1.442l.498.507c0 0 .755-.196 1.262.067s2.472 1.571 4.115 2.202c-1.169-.947-4.182-3.221-4.182-3.221s.459-.696 1.048-.437c.588.259 1.32 1.434 2.833 1.958 1.513.523 2.747.81 3.522 1.191.774.38 1.543.703 1.543.703h1.277c0 0-2.374-1.277-3.271-1.599-.899-.325-2.254-.734-3.072-1.143z" />
</svg>
