<svg xmlns="http://www.w3.org/2000/svg" viewBox="0 0 192 192" fill="#000"><rect width="192" height="192" rx="36" fill="#fff"/><path d="m126.766 51.64c-8.696-6.288-19.323-9.986-30.801-9.986-.169 0-.34.002-.508.005-.169-.002-.339-.005-.508-.005-11.478 0-21.381 3.933-30.075 10.221-13.59 9.828-21.326 25.091-17.709 42.519 3.012 14.523 13.941 26.458 23.75 36.84 3.685 3.9 7.365 7.055 10.435 10.05 5.382 5.245 9.166 9.06 14.109 9.06s8.728-3.813 14.109-9.06c3.072-2.994 6.751-6.147 10.437-10.05 9.807-10.382 21.38-22.2 24.833-36.626 4.128-17.254-4.481-33.141-18.071-42.969zm-40.992 81.102c0-.326.264-.589.591-.589 0 0 0 0 .001 0 .326 0 .59.265 .59.591 0 .022-.002 2.35.204 3.681.009 .058.009 .114.002 .169-.081-.078-.161-.157-.243-.236l-.394-.384c-.22-.215-.441-.428-.664-.641-.087-1.239-.086-2.522-.086-2.592zm1.925-5.919 3.916-5.609c.188-.267.555-.333.82-.145.267 .188.333 .555.146 .821l-3.917 5.608c-.114.163-.298.252-.484.252-.115 0-.234-.034-.338-.105-.264-.186-.33-.553-.144-.822zm49.921-33.939c-1.249 5.216-3.962 10.608-8.292 16.484-4.056 5.502-8.921 10.644-13.626 15.617-.368.389-.732.774-1.095 1.158-2.217 2.348-4.464 4.432-6.637 6.45-1.252 1.162-2.436 2.26-3.585 3.381l-.394.384c-2.566 2.503-4.884 4.764-6.659 5.863-.972.603-2.256.168-2.67-.899-1.178-3.034-1.224-6.623.502-12.24 2.54-8.264 12.352-16.182 17.474-20.099 5.121-3.917 15.535-10.716 18.204-14.504 2.668-3.787 1.936-7.746-2.323-10.373s-9.597-3.759-14.333-4.59c-4.734-.831-14.503-2.382-22.12-2.898-1.389-.095-2.744-.221-4.038-.366-.166-.375-.076-.773.438-1.068.847-.487 2.352-.847 5.351-1.32 2.998-.472 10.028-1.735 10.028-1.735s-2.856 3.069-4.691 3.873c1.908-.287 4.59-1.276 4.59-1.276s5.136-3.558 6.786-4.878c1.65-1.32 3.659-2.682 4.691-4.117l1.349 3.572c0 0-3.186 3.744-3.558 5.752 2.409-1.206 8.436-2.251 10.529-2.739 3.285 2.539 7.101 3.729 7.101 3.729s-7.2-7.89-7.99-8.722c-.789-.831-1.507-.66-2.151-.014-.647.646-.573 1.735-.573 1.735s-2.826-3.772-3.93-5.121c-1.104-1.349-1.792-1.133-2.826 0s-8.622 7.789-8.622 7.789-10.092.925-13.838 1.334c-3.326.363-5.667.777-5.742 2.809-4.331-.633-7.584-1.425-8.504-1.842-1.377-.624.078-1.671 5.387-2.388 5.309-.719 17.933-1.334 17.933-1.334l-4.288-2.266 2.754 2.022c0 0-8.808-.187-14.316-.013-5.51.172-8.307.925-9.984 1.743-1.679.818-1.679 1.572-.903 2.604-4.778-1.591-4.131-2.862-2.582-3.55 1.549-.689 10.631-2.582 10.631-2.582l3.186-.882 5.013 2.001c0 0-9.757-10.081-10.458-10.941-.701-.861-1.517-.838-2.269-.151s-5.002 4.443-7.736 7.198c-2.733 2.754-4.842 4.153-4.842 4.153l2.926-1.161 4.131-2.431 1.248-1.701 1.463.237 4.455-4.389 1.507 3.422c0 0-1.527 1.722-2.71 3.012-1.184 1.291-1.829 1.893-5.013 2.668-3.186.774-6.392 2.173-6.477 3.529-.022 1.936 3.981 3.056 8.393 4.067s19.323 3.012 28.489 4.26 16.203 3.378 19.13 5.638c2.926 2.259.408 5.108-3.206 7.805-3.615 2.697-11.648 6.743-20.657 12.768-8.44 5.646-14.541 12.727-19.405 20.795-.654-.648-1.306-1.316-1.958-2.003-4.992-5.284-9.799-10.488-13.77-16.073-4.318-6.074-6.972-11.693-8.109-17.181-1.425-6.873-.776-13.472 1.929-19.615 1.287-2.919 3.036-5.713 5.2-8.301 2.166-2.59 4.744-4.974 7.665-7.088 8.199-5.932 16.615-8.815 25.727-8.815.145 0 .292.001 .438.003 .023 0 .048 0 .071 0s.048 0 .07 0c.145-.001.291-.003.438-.003 9.547 0 18.696 2.965 26.456 8.579 5.967 4.314 10.556 9.762 13.269 15.751 1.383 3.051 2.257 6.21 2.6 9.392.363 3.337.138 6.733-.667 10.092zm-40.485 21.255 3.816-3.27c.213-.181.531-.157.713 .054.181 .213.157 .531-.054.713l-3.816 3.27c-.096.081-.213.121-.328.121-.142 0-.283-.06-.384-.177-.183-.208-.159-.529.054-.711zm9.024-7.335 3.471-2.21c.222-.142.518-.076.66 .147s.077.517-.147.66l-3.471 2.21c-.079.051-.169.075-.257.075-.157 0-.312-.078-.404-.222-.141-.224-.075-.519.147-.66zm9.805-6.281 2.697-2.008c.174-.13.42-.094.551 .081.13 .174.094 .42-.081.55l-2.697 2.008c-.07.052-.153.078-.234.078-.12 0-.239-.054-.316-.159-.129-.175-.093-.423.081-.55zm10.806-12.343c-.234-.945-.714-1.654-1.35-1.993-.136-.073-.187-.243-.114-.381.073-.136.243-.187.381-.114.777 .417 1.356 1.251 1.631 2.354.244 .986.207 2.076-.101 2.919-.04.114-.15.184-.264.184-.032 0-.065-.004-.096-.016-.145-.052-.221-.215-.168-.36.268-.743.298-1.712.081-2.592zm-1.458 5.38c.151-.133.382-.115.516 .036.133 .151.115 .383-.036.516l-1.779 1.55c-.069.06-.154.09-.24.09-.102 0-.204-.042-.276-.124-.133-.151-.115-.383.036-.516l1.779-1.551zm-3.429-10.458c-.023.073-.089.123-.162.123-.015 0-.031-.003-.047-.006l-1.269-.366c-.089-.025-.141-.12-.114-.209.025-.088.119-.141.209-.114l1.269.366c.09.021 .141.115 .114.206zm-5.588-1.513c-.007.04-.043.067-.083.067-.006 0-.012 0-.018-.001l-1.966-.417c-.045-.01-.075-.054-.065-.099.011-.045.054-.075.099-.064l1.967.417c.048.006 .077.052 .066.097zm-5.406-1.137c-.006.04-.042.069-.083.069-.005 0-.009 0-.014-.001l-1.536-.258c-.047-.008-.078-.051-.069-.096.007-.046.051-.078.096-.069l1.536.258c.045.007 .075.051 .069.097zm-17.109-14.999c-1.226-.614-3.109-2.324-3.701-2.829-.591-.506-1.431-.537-2.28.324-.851.861-2.379 2.163-2.379 2.163l.747.761c0 0 1.133-.294 1.893.1s3.708 2.356 6.173 3.303c-1.754-1.421-6.273-4.832-6.273-4.832s.689-1.044 1.572-.655c.882.389 1.98 2.151 4.249 2.937 2.27.784 4.12 1.215 5.283 1.786 1.161.57 2.315 1.055 2.315 1.055h1.916c0 0-3.561-1.916-4.907-2.398-1.349-.488-3.381-1.101-4.608-1.715z" /></svg>
